<?xml version="1.0" encoding="utf-8"?>
<!-- Generator: Adobe Illustrator 16.0.0, SVG Export Plug-In . SVG Version: 6.00 Build 0)  -->
<!DOCTYPE svg PUBLIC "-//W3C//DTD SVG 1.1//EN" "http://www.w3.org/Graphics/SVG/1.1/DTD/svg11.dtd">
<svg version="1.1" id="Layer_1" xmlns="http://www.w3.org/2000/svg" xmlns:xlink="http://www.w3.org/1999/xlink" x="0px" y="0px"
	 width="100px" height="64.541px" viewBox="0 0 100 64.541" enable-background="new 0 0 100 64.541" xml:space="preserve">
<g id="Your_Icon">
	<path d="M28.376,17.692c2.955,0.756,4.839-0.253,4.839-0.253s16.221-7.165,18.672-8.485c2.453-1.32,5.281,0,5.281,0
		s10.625,5.844,11.941,6.601c1.324,0.756,2.828,3.772,1.259,6.853c-1.569,3.078-6.221,1.005-6.221,1.005l-10.376-5.783
		C46.919,19.767,22.527,38.69,22.527,38.69l-8.046-1.762c-1.259-14.708,3.711-21.375,3.711-21.375S25.421,16.937,28.376,17.692z
		 M84.765,15.93l-7.104,1.762c0,0-3.203,0.441-4.332,0c0,0,1.062,3.877-0.695,5.837c-1.759,1.96-3.082,3.027-5.91,3.027
		c-2.829,0-4.211-1.193-5.28-1.884c-1.07-0.691-7.483-4.34-7.483-4.34s-8.863,3.646-29.356,20.058c0,0-2.517,1.637-0.882,4.211
		c0,0,1.508,2.135,4.528,0c3.016-2.141,9.49-6.539,9.49-6.539s0.695-0.441,1.132,0c0.441,0.441,0.192,0.695-0.123,1.006
		c-0.314,0.311-8.991,6.48-8.991,6.48s-1.132,1.316,0.188,2.82c1.32,1.514,2.076,1.637,3.834,0.443
		c1.761-1.193,9.432-7.162,9.432-7.162s1.005-0.629,1.508,0.059c0.503,0.695,0.376,0.883,0,1.258
		c-0.376,0.377-8.612,6.352-8.612,6.352s-1.32,1.316-0.126,2.639c1.193,1.324,2.579,1.506,4.213,0.312s5.844-4.4,5.844-4.4
		s0.818-0.816,1.635-0.188c0.818,0.631-0.315,1.57-0.315,1.57l-4.701,3.393c0,0-1.27,1.135,0.615,2.582
		c1.888,1.447,1.95,1.07,3.584,0s3.898-2.828,3.898-2.828s-3.396-6.793,1.005-9.75c0,0,1.762-1.252,3.896-1.316
		c0,0,0-3.523,3.588-4.59c3.58-1.07,4.838,0.879,4.838,0.879s1.136-1.689,3.393-1.57c2.265,0.123,3.566,1.006,3.566,1.006
		s1.092-1.572,3.668-1.447c2.574,0.127,4.838,3.393,4.838,3.393l8.615-1.695C88.166,37.306,89.546,23.917,84.765,15.93z
		 M77.474,42.147c0,0-0.123-2.828-1.381-3.457c-1.26-0.629-4.023-1.006-4.652,1.729l-0.396,0.094c0,0-0.738-1.822-3.502-1.822
		c0,0-2.453-0.188-2.388,2.705l-0.694,0.059c0,0-1.259-3.264-4.087-2.07s-2.705,3.205-1.692,5.471c0,0-0.492,0.375-0.658,0.375
		c-0.16,0-1.483-2.264-3.494-1.258c0,0-2.768,0.318-1.57,5.346c1.193,5.027,1.129,4.273,1.129,4.273s0.694,3.082,3.399,2.199
		c2.698-0.881,2.322-3.08,2.199-3.711c0,0,2.95,2.207,4.527,1.578c1.569-0.631,2.322-1.953,2.069-4.594c0,0,1.258,2.453,3.522,1.758
		c2.265-0.688,2.076-2.951,2.199-3.262c0,0,0.817,1.758,2.706,1.193C76.591,48.181,77.033,45.794,77.474,42.147z"/>
</g>
</svg>
