<?xml version="1.0" encoding="utf-8"?>
<!-- Generator: Adobe Illustrator 16.0.0, SVG Export Plug-In . SVG Version: 6.00 Build 0)  -->
<!DOCTYPE svg PUBLIC "-//W3C//DTD SVG 1.1//EN" "http://www.w3.org/Graphics/SVG/1.1/DTD/svg11.dtd">
<svg version="1.1" id="Layer_1" xmlns="http://www.w3.org/2000/svg" xmlns:xlink="http://www.w3.org/1999/xlink" x="0px" y="0px"
	 width="100px" height="100px" viewBox="0 0 100 100" enable-background="new 0 0 100 100" xml:space="preserve">
<g>
	<path fill="none" d="M26.177,54.809c2.241-6.468,5.923-6.716,6.75-6.909c0.101-0.024,0.202-0.046,0.306-0.065
		c2.637-2.436,0.837-12.608,0.837-12.608c0-15.504,10.487-13.979,10.487-13.979c0.129-0.006,0.255-0.012,0.381-0.016
		c0.125,0.004,0.251,0.01,0.38,0.016c0,0,10.488-1.525,10.488,13.979c0,0-1.801,10.172,0.837,12.608
		c0.103,0.02,0.204,0.042,0.306,0.065c0.824,0.192,4.508,0.44,6.748,6.907c2.406-3.587,3.811-7.898,3.811-12.531
		c0-12.445-10.125-22.57-22.569-22.57c-12.445,0-22.57,10.125-22.57,22.57C22.367,46.91,23.772,51.221,26.177,54.809z"/>
	<path fill="none" d="M36.703,34.573c-0.055,0.01-0.106,0.033-0.154,0.066c-0.348,0.25-0.489,1.125-0.312,2.115
		c0.135,0.752,0.418,1.38,0.729,1.689c0.153,0.154,0.313,0.229,0.464,0.203c0.074-0.014,0.141-0.049,0.201-0.105
		c0.732,2.282,2.134,4.555,3.901,5.927c1.042,0.809,2.21,1.306,3.446,1.306c1.228,0,2.39-0.49,3.427-1.291
		c1.776-1.372,3.184-3.653,3.921-5.943c0.06,0.056,0.128,0.093,0.2,0.105c0.131,0.023,0.267-0.031,0.4-0.143
		c0.334-0.284,0.648-0.946,0.791-1.75c0.188-1.049,0.019-1.968-0.375-2.152c-0.028-0.014-0.059-0.023-0.09-0.03l-0.896,0.865
		l-11.039-5.683c-3.609-0.334-4.182,4.488-4.226,4.918c-0.002,0.02-0.003,0.03-0.003,0.031v-0.001
		C36.959,34.6,36.828,34.552,36.703,34.573z"/>
	<path fill="none" d="M50.205,45.098c-0.901,0.887-1.901,1.59-2.968,2.013c-0.725,0.288-1.481,0.447-2.259,0.447
		c-0.776,0-1.532-0.159-2.257-0.447c-1.078-0.427-2.087-1.139-2.994-2.038l0,0c0,1.106-0.845,1.738-1.42,2.038
		c-0.068,0.036-0.133,0.067-0.192,0.094c-0.143,0.065-0.252,0.104-0.299,0.12l0,0c0.033,0.284,0.159,0.558,0.362,0.817
		c0.949,1.214,3.617,2.967,6.761,2.967c3.144,0,5.812-1.753,6.759-2.967c0.203-0.259,0.33-0.533,0.364-0.816
		c0.001-0.008,0.001-0.016,0.002-0.025c-0.388-0.143-1.818-0.768-1.84-2.195C50.216,45.104,50.21,45.101,50.205,45.098z"/>
	<path d="M83.501,78.121L65.307,59.928c4.109-4.736,6.604-10.906,6.604-17.653c0-14.874-12.101-26.974-26.974-26.974
		c-14.874,0-26.974,12.101-26.974,26.975c0,14.873,12.101,26.973,26.975,26.973c5.347,0,10.332-1.568,14.527-4.264L78.052,83.57
		c0.752,0.752,1.739,1.129,2.725,1.129s1.973-0.377,2.726-1.129C85.006,82.066,85.006,79.627,83.501,78.121z M44.938,19.706
		c12.445,0,22.57,10.125,22.57,22.57c0,4.634-1.404,8.945-3.811,12.531c-2.241-6.466-5.924-6.714-6.749-6.907
		c-0.102-0.024-0.203-0.046-0.306-0.065c-2.637-2.436-0.838-12.608-0.838-12.608c0-15.504-10.487-13.979-10.487-13.979
		c-0.129-0.006-0.255-0.012-0.381-0.016c-0.125,0.004-0.252,0.01-0.381,0.016c0,0-10.487-1.525-10.487,13.979
		c0,0,1.8,10.172-0.837,12.608c-0.103,0.02-0.205,0.042-0.306,0.065c-0.826,0.192-4.509,0.44-6.75,6.909
		c-2.405-3.588-3.811-7.9-3.811-12.533C22.367,29.83,32.492,19.706,44.938,19.706z M37.09,34.673
		c0.044-0.431,0.617-5.252,4.226-4.918l11.039,5.682l0.896-0.864c0.031,0.006,0.062,0.016,0.09,0.03
		c0.394,0.184,0.563,1.104,0.375,2.152c-0.143,0.804-0.457,1.467-0.791,1.75c-0.134,0.112-0.27,0.165-0.4,0.142
		c-0.072-0.013-0.141-0.048-0.2-0.105c-0.737,2.29-2.145,4.571-3.921,5.943c-1.037,0.8-2.199,1.29-3.427,1.29
		c-1.235,0-2.404-0.496-3.446-1.306c-1.767-1.373-3.168-3.646-3.901-5.927c-0.06,0.055-0.126,0.092-0.201,0.105
		c-0.152,0.027-0.312-0.049-0.464-0.203c-0.31-0.31-0.593-0.938-0.729-1.689c-0.177-0.99-0.036-1.864,0.312-2.115
		c0.047-0.034,0.099-0.058,0.154-0.067c0.125-0.021,0.256,0.027,0.384,0.13v0C37.086,34.704,37.088,34.692,37.09,34.673z
		 M52.063,47.301c-0.001,0.009-0.001,0.016-0.002,0.025c-0.034,0.283-0.161,0.558-0.364,0.816c-0.947,1.214-3.616,2.967-6.759,2.967
		c-3.145,0-5.812-1.753-6.761-2.967c-0.203-0.259-0.328-0.533-0.362-0.817l0,0c0.047-0.016,0.157-0.055,0.299-0.12
		c0.059-0.027,0.124-0.059,0.192-0.094c0.574-0.301,1.419-0.931,1.42-2.038l0,0c0.908,0.898,1.916,1.611,2.994,2.038
		c0.725,0.288,1.481,0.447,2.257,0.447c0.777,0,1.534-0.159,2.259-0.447c1.067-0.423,2.068-1.126,2.968-2.013
		c0.006,0.003,0.012,0.005,0.019,0.008C50.245,46.533,51.676,47.158,52.063,47.301z"/>
</g>
</svg>
